<?xml version="1.0" encoding="utf-8"?>
<!-- Generator: Adobe Illustrator 23.0.1, SVG Export Plug-In . SVG Version: 6.00 Build 0)  -->
<svg version="1.1" xmlns="http://www.w3.org/2000/svg" xmlns:xlink="http://www.w3.org/1999/xlink" x="0px" y="0px"
	 viewBox="0 0 337.5 92" style="enable-background:new 0 0 337.5 92;" xml:space="preserve">
<style type="text/css">
	.st0{display:none;}
	.st1{display:inline;fill:none;}
	.st2{display:inline;}
	.st3{font-family:'SceneAltMedium';}
	.st4{font-size:30px;}
	.st5{letter-spacing:2;}
	.st6{fill:none;}
</style>
<g id="Text" class="st0">
	<rect x="-32.2" y="160.6" class="st1" width="26.2" height="22.7"/>
	<rect x="-32" y="100.2" class="st1" width="26.2" height="22.7"/>
	<rect x="-32" y="-28.8" class="st1" width="26.2" height="22.7"/>
	<rect x="-1" y="68.1" class="st1" width="347.4" height="34.3"/>
	<text transform="matrix(1 0 0 1 -1.0374 89.4141)" class="st2 st3 st4 st5">23 AUG - 1 SEP 2019</text>
</g>
<g id="Text_x5F_OL">
	<g>
		<path d="M15.2,75.6c0,1.9-0.8,3.6-2.4,5.1c-0.2,0.2-1.8,1.4-4.8,3.7c-1.9,1.4-3.1,2.9-3.6,4.2h7.8v-3.1h3v5.9H0.7
			c0-2.9,1-5.3,2.9-7.4c0.4-0.5,2.3-1.9,5.4-4.2c2-1.4,2.9-2.9,2.9-4.2c0-2.3-1.2-3.5-3.5-3.5c-1.6,0-2.8,0.4-3.5,1.1
			c-0.6,0.6-0.9,1.4-1.1,2.6H1c0.1-1.8,0.7-3.3,1.8-4.4c1.3-1.4,3.2-2.1,5.8-2.1c1.9,0,3.5,0.5,4.7,1.6
			C14.6,72.1,15.2,73.7,15.2,75.6z"/>
		<path d="M36.8,85c0,2.3-0.7,4-2.2,5.2c-1.3,1.1-3.2,1.7-5.5,1.7c-2,0-3.6-0.3-4.8-1c-1.3-0.7-2.3-1.8-3.1-3.4l2.5-1.2
			c0.6,1.1,1.3,1.9,2.2,2.4c0.8,0.4,1.9,0.6,3.3,0.6c3,0,4.5-1.5,4.5-4.4c0-1.1-0.3-2-1-2.7c-0.7-0.6-1.6-1-2.8-1h-3.5l-0.8-2.7h4.2
			c1,0,1.9-0.3,2.5-0.9c0.7-0.6,1-1.5,1-2.6c0-2.1-1.2-3.2-3.8-3.2c-1.4,0-2.5,0.2-3.3,0.6c-0.8,0.4-1.6,1.2-2.2,2.3l-2.5-1.2
			c0.8-1.6,1.9-2.7,3.2-3.4c1.2-0.7,2.8-1,4.8-1c2.4,0,4.2,0.6,5.4,1.7c1,1,1.5,2.4,1.5,4.1c0,2-0.9,3.6-2.6,4.6
			C35.8,80.8,36.8,82.5,36.8,85z"/>
		<path d="M71.2,91.5h-3.3l-2.4-6.4h-8.1L55,91.5h-3.3l8.1-21.6h3.3L71.2,91.5z M64.4,82.3L61.8,75c-0.1-0.3-0.2-0.6-0.3-1.2
			l-0.1-0.3c-0.1,0.3-0.2,0.8-0.3,1.5l-2.7,7.3H64.4z"/>
		<path d="M92.9,82.5c0,3.2-0.8,5.6-2.5,7.2c-1.5,1.5-3.6,2.2-6.3,2.2c-5.8,0-8.7-3.1-8.7-9.4V69.8h3.1v12.7c0,2.3,0.5,4.1,1.4,5.1
			c0.9,1,2.3,1.5,4.2,1.5c1.9,0,3.3-0.5,4.2-1.5c1-1.1,1.5-2.8,1.5-5.1V69.8h3.1V82.5z"/>
		<path d="M115.5,88.9c-1.2,1-2.3,1.7-3.2,2.1c-1.3,0.6-2.8,0.9-4.5,0.9c-6.2,0-9.4-3.8-9.4-11.3s3.1-11.3,9.3-11.3
			c2.5,0,4.4,0.7,5.8,2c1.2,1.1,1.8,2.6,1.9,4.4h-3c-0.3-2.4-1.9-3.7-4.7-3.7c-2.3,0-4,0.8-4.9,2.3c-0.8,1.3-1.2,3.4-1.2,6.2
			c0,2.8,0.4,4.8,1.2,6.1c1,1.6,2.6,2.4,5,2.4c1.7,0,3.2-0.5,4.5-1.4v-4.4c0-0.1,0-0.3,0.1-0.6h-4.7L107,80h8.5V88.9z"/>
		<path d="M139.7,84.1h-8.5v-2.9h8.5V84.1z"/>
		<path d="M168.6,91.5h-11.7v-2.9h4.3V73.9c0-0.5,0.1-0.8,0.2-1.1l-4.5,0.9v-2.8l7.4-1.5v19.2h4.3V91.5z"/>
		<path d="M202.1,85.2c0,2-0.7,3.6-2,4.8c-1.4,1.3-3.5,2-6.3,2c-3.8,0-6.4-1.5-7.8-4.4l2.6-1.3c1.1,1.9,2.8,2.9,5.2,2.9
			c3.3,0,5-1.3,5-3.9c0-1.8-1-2.9-2.9-3.3l-4.6-0.8c-3.3-0.6-4.9-2.5-4.9-5.9c0-1.7,0.6-3.1,1.7-4.1c1.3-1.2,3.3-1.8,5.9-1.8
			c3.5,0,6,1.2,7.4,3.7l-2.7,1.3c-1-1.5-2.5-2.3-4.7-2.3c-2.9,0-4.4,1.1-4.4,3.2c0,0.9,0.2,1.6,0.5,2c0.4,0.4,1,0.7,1.9,0.9l4.5,0.7
			C200.3,79.5,202.1,81.6,202.1,85.2z"/>
		<path d="M221.9,91.5h-14.1V69.8h14.1v2.9H211v5.9h9.9l-0.8,2.9h-9.3c0.1,0.4,0.2,0.7,0.2,0.9v6.1h11V91.5z"/>
		<path d="M242.8,76.7c0,2-0.6,3.6-1.8,4.8c-1.4,1.3-3.4,2-6,2h-4.2c0.1,0.2,0.2,0.5,0.2,0.8v7.1h-3.1V69.8h7.2c2.6,0,4.6,0.7,6,2
			C242.1,73.1,242.8,74.7,242.8,76.7z M239.6,76.7c0-2.8-1.6-4.2-4.7-4.2h-4v8.3h4C238,80.9,239.6,79.5,239.6,76.7z"/>
		<path d="M273.3,75.6c0,1.9-0.8,3.6-2.4,5.1c-0.2,0.2-1.8,1.4-4.8,3.7c-1.9,1.4-3.1,2.9-3.6,4.2h7.8v-3.1h3v5.9h-14.4
			c0-2.9,1-5.3,2.9-7.4c0.4-0.5,2.3-1.9,5.4-4.2c2-1.4,2.9-2.9,2.9-4.2c0-2.3-1.2-3.5-3.5-3.5c-1.6,0-2.8,0.4-3.5,1.1
			c-0.6,0.6-0.9,1.4-1.1,2.6h-2.9c0.1-1.8,0.7-3.3,1.8-4.4c1.3-1.4,3.2-2.1,5.8-2.1c1.9,0,3.5,0.5,4.7,1.6
			C272.7,72.1,273.3,73.7,273.3,75.6z"/>
		<path d="M294.7,80.4c0,3.7-0.4,6.4-1.3,8.1c-1.1,2.3-3.2,3.4-6.1,3.4c-3,0-5-1.1-6.2-3.4c-0.8-1.7-1.3-4.4-1.3-8.1
			c0-3.5,0.5-6.1,1.4-7.8c1.2-2.1,3.2-3.2,6-3.2c2.9,0,4.9,1.1,6,3.2C294.2,74.3,294.7,76.9,294.7,80.4z M291.5,80.4
			c0-3-0.2-5.1-0.7-6.2c-0.6-1.4-1.7-2.1-3.5-2.1c-1.7,0-2.9,0.7-3.5,2.1c-0.5,1.1-0.7,3.2-0.7,6.2c0,3.2,0.2,5.4,0.7,6.6
			c0.6,1.5,1.8,2.2,3.5,2.2c1.7,0,2.9-0.7,3.5-2.2C291.2,85.8,291.5,83.6,291.5,80.4z"/>
		<path d="M314.2,91.5h-11.7v-2.9h4.3V73.9c0-0.5,0.1-0.8,0.2-1.1l-4.5,0.9v-2.8l7.4-1.5v19.2h4.3V91.5z"/>
		<path d="M336.9,77.1c0,0.4,0,1,0,1.9c0,0.8,0,1.5,0,1.9c0,3.4-0.4,5.9-1.3,7.5c-1.2,2.3-3.4,3.5-6.7,3.5c-3,0-5.2-1-6.6-3l2.1-1.9
			c1.3,1.5,2.8,2.2,4.6,2.2c1.6,0,2.8-0.4,3.5-1.3c0.8-0.9,1.2-2.6,1.2-5c-1.2,0.9-2.6,1.4-4.3,1.4c-5,0-7.5-2.4-7.5-7.2
			c0-5.2,2.5-7.7,7.5-7.7S336.9,72,336.9,77.1z M333.7,77.1c0-1.8-0.3-3.1-1-3.9c-0.7-0.7-1.8-1.1-3.3-1.1c-1.5,0-2.6,0.4-3.3,1.1
			s-1,2-1,3.9c0,1.6,0.3,2.8,1,3.5c0.7,0.7,1.8,1,3.3,1C332.3,81.6,333.7,80.1,333.7,77.1z"/>
	</g>
</g>
<g id="Horizon">
	<path class="st6" d="M72.2,32.5c7.3,0,13.3-6,13.3-13.3c0-7.3-6-13.3-13.3-13.3c-7.3,0-13.3,6-13.3,13.3
		C58.9,26.5,64.9,32.5,72.2,32.5z"/>
	<ellipse transform="matrix(0.9732 -0.2298 0.2298 0.9732 2.5125 59.9764)" class="st6" cx="258.8" cy="19.2" rx="13.3" ry="13.3"/>
	<polygon points="5.7,29.2 32.6,29.2 32.6,52.6 38.3,52.6 38.3,0.2 32.6,0.2 32.6,23.4 5.7,23.4 5.7,0.2 0,0.2 0,52.6 5.7,52.6 	"/>
	<rect x="55.3" y="46.9" width="33.3" height="5.7"/>
	<path d="M72.2,38.2c10.5,0,19-8.5,19-19c0-10.5-8.5-19-19-19c-10.5,0-19,8.5-19,19C53.2,29.7,61.7,38.2,72.2,38.2z M72.2,5.9
		c7.3,0,13.3,6,13.3,13.3c0,7.3-6,13.3-13.3,13.3c-7.3,0-13.3-6-13.3-13.3C58.9,11.9,64.9,5.9,72.2,5.9z"/>
	<path d="M113.6,29.2h8.2l14.5,23.3h6.7L128.3,29l2.3-0.7c5-1.4,11-4.9,11-13.6c0-14.3-16.2-14.5-16.9-14.5h-16.8v7l10.4,16.3h-10.4
		v29h5.7V29.2z M113.9,6h10.8c3.9,0,11.2,1.8,11.2,8.8c0,4.9-3.7,8.2-9.8,8.8l-1.1,0.1L113.9,6z"/>
	<rect x="159" y="0.2" width="5.7" height="52.3"/>
	<polygon points="181.6,0 181.6,5.7 211.7,5.7 183,52.4 223.3,52.4 223.3,46.7 193.2,46.7 221.9,0 	"/>
	<path d="M258.8,38.2c10.5,0,19-8.5,19-19c0-10.5-8.5-19-19-19c-10.5,0-19,8.5-19,19C239.8,29.7,248.4,38.2,258.8,38.2z M258.8,5.9
		c7.3,0,13.3,6,13.3,13.3c0,7.3-6,13.3-13.3,13.3c-7.3,0-13.3-6-13.3-13.3C245.5,11.9,251.5,5.9,258.8,5.9z"/>
	<rect x="241.9" y="46.9" width="33.3" height="5.7"/>
	<polygon points="300.2,8.8 330.8,52.6 337.5,52.6 337.5,0.2 331.8,0.2 331.8,44 301.2,0.2 294.5,0.2 294.5,52.6 300.2,52.6 	"/>
	<path class="st6" d="M72.2,32.5c7.3,0,13.3-6,13.3-13.3c0-7.3-6-13.3-13.3-13.3c-7.3,0-13.3,6-13.3,13.3
		C58.9,26.5,64.9,32.5,72.2,32.5z"/>
	<ellipse transform="matrix(0.9732 -0.2298 0.2298 0.9732 2.5125 59.9764)" class="st6" cx="258.8" cy="19.2" rx="13.3" ry="13.3"/>
	<polygon points="5.7,29.2 32.6,29.2 32.6,52.6 38.3,52.6 38.3,0.2 32.6,0.2 32.6,23.4 5.7,23.4 5.7,0.2 0,0.2 0,52.6 5.7,52.6 	"/>
	<rect x="55.3" y="46.9" width="33.3" height="5.7"/>
	<path d="M72.2,38.2c10.5,0,19-8.5,19-19c0-10.5-8.5-19-19-19c-10.5,0-19,8.5-19,19C53.2,29.7,61.7,38.2,72.2,38.2z M72.2,5.9
		c7.3,0,13.3,6,13.3,13.3c0,7.3-6,13.3-13.3,13.3c-7.3,0-13.3-6-13.3-13.3C58.9,11.9,64.9,5.9,72.2,5.9z"/>
	<path d="M113.6,29.2h8.2l14.5,23.3h6.7L128.3,29l2.3-0.7c5-1.4,11-4.9,11-13.6c0-14.3-16.2-14.5-16.9-14.5h-16.8v7l10.4,16.3h-10.4
		v29h5.7V29.2z M113.9,6h10.8c3.9,0,11.2,1.8,11.2,8.8c0,4.9-3.7,8.2-9.8,8.8l-1.1,0.1L113.9,6z"/>
	<rect x="159" y="0.2" width="5.7" height="52.3"/>
	<polygon points="181.6,0 181.6,5.7 211.7,5.7 183,52.4 223.3,52.4 223.3,46.7 193.2,46.7 221.9,0 	"/>
	<path d="M258.8,38.2c10.5,0,19-8.5,19-19c0-10.5-8.5-19-19-19c-10.5,0-19,8.5-19,19C239.8,29.7,248.4,38.2,258.8,38.2z M258.8,5.9
		c7.3,0,13.3,6,13.3,13.3c0,7.3-6,13.3-13.3,13.3c-7.3,0-13.3-6-13.3-13.3C245.5,11.9,251.5,5.9,258.8,5.9z"/>
	<rect x="241.9" y="46.9" width="33.3" height="5.7"/>
	<polygon points="300.2,8.8 330.8,52.6 337.5,52.6 337.5,0.2 331.8,0.2 331.8,44 301.2,0.2 294.5,0.2 294.5,52.6 300.2,52.6 	"/>
</g>
</svg>
